<svg xmlns="http://www.w3.org/2000/svg" viewBox="0 0 422.7 422.7" class="h-full w-auto">
  <defs>
    <style>
      .cls-1 {
        fill: #fff
      }
    </style>
  </defs>
  <g>
    <path fill="#1b1c20"
      d="M211.4 0C94.6 0 0 94.6 0 211.4s94.6 211.4 211.4 211.4 211.4-94.6 211.4-211.4S328.1 0 211.4 0Z" />
    <path
      d="M264.2 317.7c-.7 1-1.6 1.6-2.4 1.6h-.1c-.5 0-.9-.3-1.2-.8-.1-.2-.4-.8.6-2.3.5-.7 1.2-1.9 2.2-1.8 1 .1 1.4.6 1.6 1 .3.6 0 1.4-.6 2.3ZM177.8 335.6c-13.1 11.9-22.2 17.8-31.2 20.3-2.8.8-5.5 1.4-8.4 1.4s-3.1-.2-4.7-.6c-3.7-1-6.4-3.4-8.1-7.4-.6-1.5-.8-2.9-.9-6.3s0-.4.2-.5c-.1-3.2 0-4.3.6-6.9 1.4-5.5 4.3-12.5 7.5-17.8 7.6-12.7 20.1-23.3 31.2-26.3 4.9-1.3 9.2.2 10.5 3.6 1.2 3.2-1.3 10.6-5.8 16.7-4 5.6-5.2 5.6-5.6 5.6-.9 0-1.3-.4-1.5-.7-.4-.9.4-1.9 1-2.6 4.7-5.1 8.5-12.9 8.3-16.9q0-1.7-.8-2.2c-.8-.5-1.1-.6-2.6-.5-4.8.2-11.9 3.9-18.4 9.6-8.3 7.3-13.9 15.4-18.1 26.4-2.6 6.8-3.2 11.9-2 16.6 1 3.6 2.9 5.8 5.8 6.6 3.1.8 6.9.5 11.4-.9 4.2-1.4 9-4 14.2-7.6 1.9-1.3 8.8-6.1 15-11.9 4.1-3.7 5.2-4.5 6.3-4.4.3 0 .7.2 1 .7.5.7.2 1.3-4.8 5.8ZM316.9 324.8c-7 6.1-12 8.4-16.5 7.9-3.7-.5-5.8-2.5-5.6-5.3 0-.4 0-.8.2-1.2-.6.2-1.1.5-1.7.7-3.9 1.4-7.2 1.4-9.3.1l-.4-.3-1.8 2c-1.9 2.1-4.5 4.3-5.8 4.5-1.5.2-2.8-.9-3.1-2.2-.1-.5-.1-1.1 0-2v-.9c0-.6 0-1.1.1-1.6-2.1 1.5-4.6 3.1-6.8 4.3-4 2.2-5.6 2.8-7.8 2.9h-.5c-1.1 0-1.7-.2-2.7-.9-1-.7-1.4-1.4-1.5-2.4 0-1.4.9-4.2 2.2-6.2 1.3-2.2 2.2-3.3 3.3-3.4.4 0 .9.2 1.4.6.9.8.3 1.9-.9 4.2-2 3.6-1.9 4.5-1.8 4.7 0 0 .3.2.8.1 1.8 0 6.7-2.4 12.8-6.7l.2-.2c.8-.6 1.6-1.1 2.2-1.5.4-1.1 1-1.7 1.7-1.8.6 0 1.1 0 1.4.4.7.7.5 2 0 4.3-.4 1.9-.5 3.5-.5 4.3 1-.9 3.4-3.6 5.3-6.2 2-2.7 2.7-3.5 3.6-3.5.9 0 1.4.2 1.7.7.4.7 0 1.7-.4 2.3-.5.9-.6 1.4-.5 1.6 0 0 .4.5 2.6.3 1.8-.2 4.2-.6 7.9-3 .2-.1.4-.1.6 0 1.8-1.4 4.3-2.3 5.6-2.2.5 0 1 0 1.5.3.9.4 1.5 1 1.6 1.9.2 1.1-.4 2.4-1.6 3.5-1.2 1.2-2.5 1.5-3.7 1.6h-1.8c0 .3-.1.8 0 1.2 0 .5.2 1.7 3.1 1.5 3.2-.1 7.3-2.5 13.4-7.8.1-.1.3-.2.4-.2 2.6-2.1 3.5-2.1 4-1.8.4.2.6.7.6 1.3 0 .8-1.8 2.5-3.3 3.8Zm-15.4-.8c.5-.3 1.2-1 1.3-1.4 0-.2 0-.4-.2-.6h-.5c-.5 0-1.3.5-1.8 1.1-.5.6-.7 1.3-.5 1.3.6.1 1.2 0 1.8-.4Z"
      class="cls-1" />
    <path
      d="M236.5 351.7c0 .8 0 1.7-.4 2.2-.3.4-.9.7-1.7.7h-.1c-.8 0-1.4-.4-1.7-.9-1.2-1.7 3.6-11.9 7.9-20.2.4-.8.9-1.7 1.3-2.6-1 .8-1.9 1.5-2.7 2-4.4 2.7-7.1 3.2-9.3 1.5-1.3-1-1.5-1.5-1.6-3.1 0-.1-1.1.8-1.1.8-4.5 3.8-7.9 5.1-10 4-.8-.4-1.2-1.2-1.3-2.1-4 2.6-7.4 3.7-10.5 3.4-3.7-.5-5.8-2.5-5.6-5.3 0-.8.3-1.6.7-2.4-2.5.3-4.3-.3-5.8-1.7-.3-.3-.5-.4-.6-.5-.8.7-3.5 3.5-6.5 7.1-3 3.6-3.6 3.7-3.8 3.7-.5 0-1.1-.3-1.4-.5-.4-.4-1.4-1.3 2.5-8.3 1.6-3 2.4-3.9 3.3-4.1.7-.1 1.2.3 1.4.4.4.3.6.5.6.8.2-.1.3-.3.4-.4 2.2-1.9 3.3-2.8 4.4-2.6.8.1 1.4.8 1.9 1.6.7.9 1 1.3 3 1.2 1.3 0 2.3-.3 3.7-.8H204.4c1.2-.9 2.5-1.4 3.6-1.4.5 0 1 0 1.5.3.9.4 1.5 1 1.6 1.9.2 1.1-.4 2.4-1.6 3.5-1.2 1.1-2.5 1.4-3.7 1.6H204c0 .3-.1.8 0 1.2 0 .5.2 1.7 3.1 1.5 3-.1 6.9-2.3 12.5-7 .9-1 1.9-1.8 3-2.5 1.4-.9 2.8-1.4 4-1.4 1.7 0 3 .6 3.8 2 0 .1.2 0 .2 0 .7-.7 1.8-1.6 3-.5.9.8.4 1.9-.3 3.2-1.2 2.4-1.2 3.7-.9 4.1.1.2.2.2 1.1 0 2.1-.3 4.7-1.9 8.7-5.4l.6-.5c.7-.6 1.3-1.1 1.8-1.5.4-.3 1.2-.9 1.5-1.2l.6-1.1c1-2 2.4-4.7 3.4-6.7l.6-1.2 1.2-2.4c-2.9.2-11.6 1-14.3 1.5-2.3.4-3 .5-3.7-.3-.5-.5-.5-1-.4-1.3.2-.8 1.1-1.1 3.6-1.6 3-.5 12.1-1.5 15.2-1.7h1.5l1.8-3.1c1.7-2.8 2.4-3.7 3.1-3.8 1-.2 1.4.2 1.6.5.5.7.3 1.9-1 4.2-.4.7-.7 1.3-.9 1.8 2 0 6.5-.1 8.7-.2 0 0 .2 0 .3-.1 9.5-.4 11.1-.3 11.8.5.4.5.4 1 .3 1.3 0 .3-.2.8-.9 1.2-.7.3-1.8.5-2.6 0-1.5-.1-16.4.4-18.8.8-.8.2-.8.2-1.7 1.9-.6 1.1-1.9 3.5-2.9 5.4-13.3 25.4-15.8 31.4-15.8 33Zm-10.6-25.6c-1.9 0-5.7 3.7-6.2 6.1-.2.9.8.6 2.2-.2s1.9-1.2 3.5-2.4c1.5-1.2 1.8-1.5 1.7-2.2 0-.4-.5-1.2-1.2-1.2Zm-19.5 2.3c.5-.3 1.2-1 1.3-1.4 0-.2 0-.4-.2-.6h-.5c-.5 0-1.3.5-1.8 1.1-.5.6-.7 1.3-.5 1.3.6.1 1.2 0 1.8-.4ZM249.1 141.7c1.1-3.8 2.8-7.1 5.1-10.1 2.2-2.9 5-5.2 8.4-7 3.4-1.8 7.3-2.6 11.8-2.6s7 .8 10.3 2.3c3.2 1.5 5.8 3.8 7.7 6.8h.2v-30.6h16.7v83.9h-15.9v-7.8h-.2c-2 3.3-4.5 5.7-7.7 7.1s-6.8 2.2-10.8 2.2-8.5-.9-12-2.6c-3.4-1.8-6.3-4.2-8.5-7.2s-3.9-6.5-5.1-10.4c-1.1-3.9-1.7-8-1.7-12.2s.6-8 1.7-11.8Zm18.5 25.6c1.2 1.8 2.7 3.3 4.6 4.5 1.8 1.1 4.1 1.7 6.6 1.7s5-.5 6.9-1.6c1.8-1.1 3.3-2.6 4.4-4.4 1.1-1.8 1.9-3.9 2.4-6.3s.7-4.8.7-7.3-.2-4.9-.7-7.2-1.3-4.3-2.4-6.1c-1.1-1.8-2.6-3.2-4.4-4.3-1.8-1.1-4.1-1.6-6.8-1.6s-5.1.6-6.9 1.6c-1.9 1.1-3.4 2.5-4.5 4.3-1.1 1.8-2 3.9-2.5 6.2-.5 2.3-.8 4.7-.8 7.2s.3 4.7.8 7.1c.5 2.4 1.4 4.4 2.6 6.3ZM287.5 227.4c-1.6-2.5-4.3-3.7-8.3-3.7s-7.8 1.4-9.9 4.1c-2 2.7-3.9 7.2-3.9 13.3V273h-15.9v-80.8h16.7v28.5h.4c2.1-3.5 4.8-6.1 8.1-7.7 3.3-1.6 6.5-2.4 9.6-2.4 4.5 0 8.1.6 11 1.8 2.9 1.2 5.1 2.9 6.8 5.1 1.6 2.2 2.8 4.8 3.5 7.9.7 3.1 1 6.5 1 10.3v37.4h-16.7v-34.3c0-5-.8-8.8-2.4-11.2ZM183.6 123.7h15.9v8.5h.4c2.1-3.5 4.9-6.1 8.2-7.7 3.4-1.6 6.8-2.4 10.3-2.4s8.1.6 11 1.8c2.9 1.2 5.1 2.9 6.8 5.1 1.6 2.2 2.8 4.8 3.5 7.9.7 3.1 1 6.5 1 10.3v37.4H224v-34.3c0-5-.8-8.8-2.4-11.2s-4.3-3.7-8.3-3.7-7.8 1.4-9.9 4.1c-2 2.7-3.1 7.2-3.1 13.3v31.9h-16.7v-60.8ZM182.6 229.3c1.1-3.6 2.8-6.9 5-9.6 2.2-2.8 4.9-5 8.2-6.6 3.3-1.6 7-2.5 11.2-2.5s7.5.7 10.5 2.2c3 1.5 5.5 4 7.6 7.5h.2v-8.1h15.9v56.9c0 2.4-.3 5.2-1 8.3-.7 3.1-2.1 6.1-4.3 8.8-2.2 2.7-5.4 5-9.5 6.9-4.2 1.9-9.7 2.8-16.7 2.8s-6-.4-9.1-1.1c-3.1-.7-5.9-1.9-8.5-3.5-2.5-1.6-4.7-3.6-6.3-6.1-1.7-2.5-2.6-5.4-2.9-8.9h16.6c.8 3.1 2.3 5.3 4.6 6.5 2.3 1.2 4.9 1.8 7.9 1.8 4.7 0 8.1-1.4 10.3-4.2 2.2-2.8 3.2-6.4 3.1-10.7v-8h-.2c-1.8 3.2-4.4 5.6-7.7 7.1s-6.8 2.3-10.5 2.3-8.5-.8-11.8-2.4c-3.3-1.6-6-3.8-8.1-6.6-2.1-2.8-3.7-6-4.6-9.8-1-3.7-1.5-7.7-1.5-11.8s.6-7.7 1.7-11.3Zm17.9 23.4c1.1 1.7 2.4 3.1 4.2 4.2 1.7 1.1 3.9 1.6 6.5 1.6s4.4-.5 6.2-1.4c1.8-.9 3.3-2.2 4.5-3.8 1.2-1.6 2.1-3.3 2.6-5.3.6-2 .9-4.1.9-6.3s-.2-4.9-.7-7.1c-.5-2.2-1.3-4.2-2.4-5.9-1.1-1.7-2.5-3.1-4.3-4.1-1.8-1-4.1-1.5-6.8-1.5s-4.4.5-6.1 1.4c-1.7.9-3.1 2.2-4.2 3.8-1.1 1.6-2 3.4-2.5 5.5s-.8 4.3-.8 6.5.2 4.4.6 6.5c.4 2.2 1.2 4.1 2.2 5.8Z"
      class="cls-1" />
    <circle cx="165" cy="108.3" r="7.8" class="cls-1" />
    <path
      d="M156.6 123.7h16.7v60.8h-16.7zM156.6 211.2h16.7V272h-16.7zM91.6 103.6h16.7v28.5h.4c2.1-3.5 4.8-6.1 8.1-7.7 3.3-1.6 6.5-2.4 9.6-2.4 4.5 0 8.1.6 11 1.8 2.9 1.2 5.1 2.9 6.8 5.1 1.6 2.2 2.8 4.8 3.5 7.9.7 3.1 1 6.5 1 10.3v37.4H132v-34.3c0-5-.8-8.8-2.4-11.2-1.6-2.5-4.3-3.7-8.3-3.7s-7.8 1.4-9.9 4.1c-2 2.7-3.9 7.2-3.9 13.3v31.9H91.6v-80.8ZM111 273.4c-3.4-.7-6.4-1.9-9-3.5-2.6-1.6-4.8-3.8-6.5-6.5-1.7-2.7-2.6-6.1-2.8-10.2h15.9c0 1.8.4 3.3 1.1 4.6.7 1.3 1.7 2.4 2.9 3.2s2.5 1.4 4.1 1.8c1.5.4 3.1.6 4.8.6s2.4-.1 3.7-.4c1.3-.3 2.5-.7 3.5-1.3 1.1-.6 1.9-1.4 2.6-2.4.7-1 1.1-2.2 1.1-3.7 0-2.5-1.7-4.4-5-5.6-3.3-1.3-8-2.5-13.9-3.8-2.4-.5-4.8-1.2-7.1-1.9s-4.4-1.7-6.2-2.9c-1.8-1.2-3.3-2.7-4.3-4.6-1.1-1.8-1.6-4.1-1.6-6.8 0-3.9.8-7.1 2.3-9.6 1.5-2.5 3.5-4.5 6.1-5.9 2.5-1.4 5.3-2.5 8.5-3.1 3.1-.6 6.3-.9 9.6-.9s6.5.3 9.6.9c3.1.6 5.9 1.7 8.3 3.2 2.4 1.5 4.4 3.5 6.1 5.9 1.6 2.5 2.6 5.6 2.9 9.3h-15.9c-.2-3.2-1.5-5.4-3.6-6.5-2.2-1.1-4.8-1.7-7.8-1.7s-2 0-3.1.2c-1.1.1-2.1.4-3 .8-.9.4-1.7 1-2.3 1.7-.6.7-.9 1.7-.9 3s.5 2.7 1.6 3.6c1.1.9 2.5 1.7 4.3 2.3 1.8.6 3.8 1.1 6.1 1.6l6.9 1.5c2.4.5 4.8 1.2 7.1 2s4.4 1.8 6.2 3.1c1.8 1.3 3.2 2.9 4.3 4.8 1.1 1.9 1.6 4.3 1.6 7.1 0 4-.8 7.3-2.4 10.1-1.6 2.7-3.7 4.9-6.3 6.5-2.6 1.6-5.5 2.8-8.9 3.5-3.3.7-6.7 1-10.2 1s-7-.4-10.3-1.1ZM348.2 223.3H336v30.1c0 2.8.5 4.7 1.4 5.6.9.9 2.8 1.4 5.6 1.4s1.8 0 2.7-.1c.9 0 1.7-.2 2.5-.4v12.9c-1.4.2-3 .4-4.7.5-1.7 0-3.4.1-5.1.1-2.6 0-5-.2-7.3-.5-2.3-.4-4.4-1-6.1-2.1-1.8-1-3.2-2.5-4.2-4.3-1-1.9-1.5-4.3-1.5-7.4v-35.8h-10.1v-11.2h10.1v-18.2H336v18.2h12.2v11.2Z"
      class="cls-1" />
  </g>
</svg>